<svg xmlns="http://www.w3.org/2000/svg" style="display:none"><symbol id="bitbucket" viewBox="0 0 128 128"><path d="M64 1.023v.002-.002c-30 0-54.557 8.074-54.557 18.1 0 2.64 6.55 40.504 9.147 55.52 1.165 6.733 18.56 16.607 45.39 16.607l.02-.08v.08c27 0 44.238-9.874 45.403-16.61 2.598-15.015 9.15-52.878 9.15-55.518C118.554 9.097 94 1.022 64 1.022zm0 78.062c-9.578 0-17.343-7.766-17.343-17.343C46.657 52.164 54.422 44.4 64 44.4s17.343 7.764 17.343 17.343c0 9.577-7.765 17.342-17.343 17.342zm-.01-54.368c-19.296-.03-34.934-3.384-34.928-7.49.007-4.107 15.656-7.41 34.952-7.378 19.296.03 34.934 3.382 34.927 7.49-.005 4.106-15.653 7.407-34.95 7.377z"/><path d="M103.212 89.69c-.83 0-1.494.588-1.494.588S88.283 100.918 64 100.918s-37.718-10.64-37.718-10.64-.665-.587-1.494-.587c-.99 0-1.93.666-1.93 2.135 0 .155.015.31.044.462 2.085 11.16 3.61 19.09 3.876 20.296 1.82 8.21 17.88 14.417 37.22 14.417H64c19.342 0 35.402-6.207 37.222-14.417.268-1.205 1.79-9.13 3.876-20.29.028-.153.044-.31.044-.465 0-1.47-.94-2.137-1.93-2.137z"/></symbol><symbol id="github" viewBox="0 0 128 128"><path fill-rule="evenodd" clip-rule="evenodd" d="M64 5.103c-33.347 0-60.388 27.035-60.388 60.388 0 26.682 17.303 49.317 41.297 57.303 3.017.56 4.125-1.31 4.125-2.905 0-1.44-.056-6.197-.082-11.243-16.8 3.653-20.345-7.125-20.345-7.125-2.747-6.98-6.705-8.836-6.705-8.836-5.48-3.748.413-3.67.413-3.67 6.063.425 9.257 6.223 9.257 6.223 5.386 9.23 14.127 6.562 17.573 5.02.542-3.903 2.107-6.568 3.834-8.076-13.413-1.525-27.514-6.704-27.514-29.843 0-6.593 2.36-11.98 6.223-16.21-.628-1.52-2.695-7.662.584-15.98 0 0 5.07-1.623 16.61 6.19C53.7 35 58.867 34.327 64 34.304c5.13.023 10.3.694 15.127 2.033 11.526-7.813 16.59-6.19 16.59-6.19 3.287 8.317 1.22 14.46.593 15.98 3.872 4.23 6.215 9.617 6.215 16.21 0 23.194-14.127 28.3-27.574 29.796 2.167 1.874 4.097 5.55 4.097 11.183 0 8.08-.07 14.583-.07 16.572 0 1.607 1.088 3.49 4.148 2.897 23.98-7.994 41.263-30.622 41.263-57.294C124.388 32.14 97.35 5.104 64 5.104z"/><path d="M26.484 91.806c-.133.3-.605.39-1.035.185-.44-.196-.685-.605-.543-.906.13-.31.603-.395 1.04-.188.44.197.69.61.537.91zm2.446 2.729c-.287.267-.85.143-1.232-.28-.396-.42-.47-.983-.177-1.254.298-.266.844-.14 1.24.28.394.426.472.984.17 1.255zM31.312 98.012c-.37.258-.976.017-1.35-.52-.37-.538-.37-1.183.01-1.44.373-.258.97-.025 1.35.507.368.545.368 1.19-.01 1.452zm3.261 3.361c-.33.365-1.036.267-1.552-.23-.527-.487-.674-1.18-.343-1.544.336-.366 1.045-.264 1.564.23.527.486.686 1.18.333 1.543zm4.5 1.951c-.147.473-.825.688-1.51.486-.683-.207-1.13-.76-.99-1.238.14-.477.823-.7 1.512-.485.683.206 1.13.756.988 1.237zm4.943.361c.017.498-.563.91-1.28.92-.723.017-1.308-.387-1.315-.877 0-.503.568-.91 1.29-.924.717-.013 1.306.387 1.306.88zm4.598-.782c.086.485-.413.984-1.126 1.117-.7.13-1.35-.172-1.44-.653-.086-.498.422-.997 1.122-1.126.714-.123 1.354.17 1.444.663zm0 0"/></symbol></svg>